<svg width="347" height="347" viewBox="0 0 347 347" fill="none" xmlns="http://www.w3.org/2000/svg">
<mask id="mask0_136_1524" style="mask-type:luminance" maskUnits="userSpaceOnUse" x="102" y="85" width="220" height="107">
<path d="M102.712 85.1306H321.091V191.544H102.712V85.1306Z" fill="white"/>
</mask>
<g mask="url(#mask0_136_1524)">
<mask id="mask1_136_1524" style="mask-type:luminance" maskUnits="userSpaceOnUse" x="23" y="0" width="301" height="274">
<path d="M23.5669 121.996L236.849 0.0649414L323.303 151.292L110.021 273.223L23.5669 121.996Z" fill="white"/>
</mask>
<g mask="url(#mask1_136_1524)">
<mask id="mask2_136_1524" style="mask-type:luminance" maskUnits="userSpaceOnUse" x="23" y="0" width="301" height="274">
<path d="M23.5669 121.996L236.849 0.0649414L323.303 151.292L110.021 273.223L23.5669 121.996Z" fill="white"/>
</mask>
<g mask="url(#mask2_136_1524)">
<path fill-rule="evenodd" clip-rule="evenodd" d="M230.632 176.312C241.754 176.037 262.448 173.081 278.728 169.253C295.026 165.418 306.871 160.69 313.655 156.573C320.418 152.467 322.113 148.95 318.152 144.457C314.205 139.957 304.615 134.451 296.609 131.426C288.606 128.404 282.172 127.877 278.131 128.719C274.112 129.55 272.467 131.762 271.09 135.532C269.738 139.313 268.621 144.637 267.139 147.384C265.628 150.124 263.738 150.269 261.754 146.21C259.74 142.14 257.68 133.87 256.556 129.293C255.439 124.689 255.28 123.821 255.063 121.97C254.832 120.134 254.524 117.326 254.127 115.75C253.704 114.166 253.176 113.791 240.041 109.786C226.905 105.777 201.13 98.1249 188.143 94.1272C175.141 90.1403 174.895 89.7969 173.348 96.596C171.819 103.388 168.996 117.289 166.303 124.19C163.585 131.083 160.997 130.974 159.826 129.72C158.64 128.451 158.861 126.015 157.722 118.685C156.584 111.351 154.09 99.1189 150.948 92.6199C147.804 86.1462 144.005 85.4305 138.456 86.2474C132.904 87.0896 125.592 89.4427 119.1 95.6273C112.583 101.808 106.876 111.803 104.573 124.179C102.264 136.584 103.348 151.353 105.632 162.121C107.917 172.885 111.387 179.63 116.552 183.747C121.721 187.861 128.589 189.321 139.114 190.109C149.622 190.908 163.802 191.023 174.226 190.499C184.651 189.975 191.331 188.826 195.527 184.094C199.702 179.374 201.394 171.096 202.991 164.387C204.571 157.69 206.082 152.546 207.524 149.727C208.963 146.907 210.329 146.39 211.146 147.319C211.937 148.238 212.169 150.58 212.953 154.896C213.763 159.215 215.115 165.49 216.564 169.831C217.992 174.183 219.528 176.576 230.632 176.312Z" fill="#E25532"/>
</g>
</g>
</g>
<mask id="mask3_136_1524" style="mask-type:luminance" maskUnits="userSpaceOnUse" x="33" y="99" width="64" height="75">
<path d="M33.312 99.936H96.2347V173.963H33.312V99.936Z" fill="white"/>
</mask>
<g mask="url(#mask3_136_1524)">
<mask id="mask4_136_1524" style="mask-type:luminance" maskUnits="userSpaceOnUse" x="23" y="0" width="301" height="274">
<path d="M23.5671 121.996L236.849 0.0651855L323.303 151.292L110.021 273.223L23.5671 121.996Z" fill="white"/>
</mask>
<g mask="url(#mask4_136_1524)">
<mask id="mask5_136_1524" style="mask-type:luminance" maskUnits="userSpaceOnUse" x="23" y="0" width="301" height="274">
<path d="M23.5671 121.996L236.849 0.0651855L323.303 151.292L110.021 273.223L23.5671 121.996Z" fill="white"/>
</mask>
<g mask="url(#mask5_136_1524)">
<path fill-rule="evenodd" clip-rule="evenodd" d="M84.2776 162.45C78.422 165.967 66.6891 171.856 60.1864 173.265C53.6802 174.675 52.397 171.588 54.3597 167.243C56.3188 162.924 61.4949 157.343 61.4516 153.859C61.4046 150.374 56.102 149.004 49.7042 145.932C43.2883 142.867 35.7555 138.106 34.4109 135.077C33.0445 132.059 37.8809 130.761 44.0943 129.301C50.315 127.859 57.9382 126.265 61.9178 123.97C65.8758 121.682 66.1758 118.674 65.6264 115.186C65.077 111.702 63.6492 107.733 63.4107 104.501C63.1685 101.299 64.1155 98.8338 69.5807 100.446C75.0568 102.076 85.0548 107.783 90.4007 112.638C95.7503 117.492 96.4407 121.519 95.5985 128.712C94.7563 135.901 92.3707 146.282 91.196 152.051C90.0393 157.809 90.1116 158.948 84.2776 162.45Z" fill="#65C349"/>
</g>
</g>
</g>
<path d="M97.3073 204.662C97.4988 205.02 97.6145 205.342 97.6543 205.631C97.6904 205.92 97.7121 206.339 97.7121 206.889V226.827C97.7121 228.486 97.253 229.458 96.3385 229.747C95.8831 229.892 95.312 229.964 94.618 229.964C93.924 229.964 93.3674 229.906 92.9553 229.791C92.5505 229.668 92.2396 229.523 92.03 229.357C91.8167 229.183 91.6468 228.945 91.5239 228.634C91.4083 228.222 91.3504 227.593 91.3504 226.754V214.725C90.7504 215.47 89.8757 216.648 88.719 218.267C87.5696 219.879 86.8394 220.892 86.5213 221.304C86.2105 221.708 86.0008 221.99 85.8852 222.142C85.7695 222.298 85.4731 222.514 85.0032 222.793C84.5405 223.064 84.0381 223.198 83.4995 223.198C82.9574 223.198 82.4658 223.075 82.0248 222.822C81.5802 222.572 81.2621 222.327 81.0705 222.084L80.7814 221.694C80.297 221.098 79.35 219.825 77.9331 217.877C76.5234 215.921 75.7643 214.87 75.6487 214.725V226.827C75.6487 227.376 75.627 227.792 75.5908 228.07C75.5511 228.352 75.4354 228.656 75.2438 228.981C74.886 229.639 73.957 229.964 72.4534 229.964C70.9859 229.964 70.075 229.639 69.7208 228.981C69.5256 228.656 69.4099 228.345 69.3738 228.056C69.334 227.766 69.3159 227.333 69.3159 226.754V206.816C69.3159 206.267 69.334 205.858 69.3738 205.587C69.4099 205.309 69.5256 204.991 69.7208 204.633C70.075 204.008 71.0112 203.693 72.5257 203.693C73.1691 203.693 73.7257 203.773 74.1884 203.925C74.6583 204.08 74.9619 204.243 75.0993 204.416L75.3161 204.633L83.4706 215.332C87.5479 209.947 90.2697 206.39 91.6396 204.662C92.0444 204.019 93.0023 203.693 94.5168 203.693C96.0385 203.693 96.9675 204.019 97.3073 204.662Z" fill="#E25532"/>
<path d="M112.942 203.332C116.488 203.332 119.568 204.615 122.181 207.178C124.791 209.744 126.099 212.925 126.099 216.72C126.099 220.519 124.848 223.754 122.354 226.422C119.868 229.093 116.802 230.427 113.159 230.427C109.515 230.427 106.414 229.111 103.862 226.48C101.317 223.841 100.045 220.696 100.045 217.053C100.045 215.068 100.399 213.207 101.115 211.472C101.838 209.737 102.796 208.284 103.992 207.105C105.196 205.931 106.573 205.009 108.127 204.344C109.689 203.672 111.294 203.332 112.942 203.332ZM106.407 216.879C106.407 219.012 107.094 220.74 108.474 222.07C109.852 223.4 111.388 224.065 113.087 224.065C114.793 224.065 116.325 223.422 117.684 222.128C119.051 220.837 119.737 219.102 119.737 216.923C119.737 214.736 119.047 212.986 117.67 211.674C116.289 210.355 114.749 209.693 113.043 209.693C111.344 209.693 109.812 210.359 108.445 211.689C107.086 213.019 106.407 214.75 106.407 216.879Z" fill="#E25532"/>
<path d="M148.586 225.54C148.951 226.4 149.135 227.022 149.135 227.405C149.135 228.323 148.39 229.089 146.908 229.704C146.135 230.04 145.513 230.21 145.043 230.21C144.581 230.21 144.197 230.098 143.901 229.877C143.601 229.646 143.381 229.411 143.236 229.169C142.994 228.717 142.058 226.548 140.431 222.663L139.318 222.735H134.792V226.798C134.792 227.347 134.771 227.763 134.734 228.041C134.706 228.312 134.594 228.627 134.402 228.981C134.062 229.639 133.13 229.964 131.597 229.964C129.92 229.964 128.937 229.523 128.648 228.634C128.503 228.222 128.431 227.593 128.431 226.754V206.816C128.431 206.267 128.449 205.858 128.488 205.587C128.525 205.309 128.64 204.991 128.835 204.633C129.172 203.979 130.108 203.65 131.64 203.65H139.39C141.501 203.65 143.547 204.423 145.535 205.963C146.496 206.708 147.288 207.713 147.906 208.985C148.531 210.25 148.846 211.66 148.846 213.221C148.846 215.921 147.949 218.148 146.157 219.901C146.677 221.166 147.487 223.046 148.586 225.54ZM134.792 216.373H139.39C140.084 216.373 140.778 216.113 141.472 215.592C142.173 215.065 142.528 214.273 142.528 213.221C142.528 212.162 142.173 211.363 141.472 210.821C140.778 210.283 140.059 210.012 139.318 210.012H134.792V216.373Z" fill="#E25532"/>
<path d="M162.398 216.778C166.06 220.299 168.659 222.945 170.191 224.716C170.979 225.605 171.377 226.35 171.377 226.957C171.377 227.564 170.892 228.283 169.931 229.111C168.977 229.942 168.189 230.355 167.574 230.355C166.967 230.355 166.233 229.849 165.377 228.836L157.468 219.829V226.827C157.468 227.405 157.446 227.832 157.41 228.099C157.381 228.359 157.269 228.67 157.077 229.024C156.738 229.671 155.805 229.993 154.273 229.993C152.595 229.993 151.612 229.541 151.323 228.634C151.178 228.251 151.106 227.636 151.106 226.798V206.816C151.106 206.267 151.124 205.859 151.164 205.587C151.2 205.309 151.316 204.991 151.511 204.633C151.847 203.979 152.783 203.65 154.316 203.65C155.993 203.65 156.984 204.095 157.294 204.98C157.41 205.396 157.468 206.021 157.468 206.86V213.713C160.725 210.051 163.36 207.048 165.377 204.705C166.215 203.722 166.942 203.231 167.56 203.231C168.185 203.231 168.977 203.646 169.931 204.474C170.892 205.295 171.377 206.014 171.377 206.628C171.377 207.236 171.015 207.959 170.292 208.797C168.904 210.398 166.75 212.6 163.83 215.405L162.398 216.778Z" fill="#E25532"/>
<path d="M186.431 203.332C189.977 203.332 193.057 204.615 195.67 207.178C198.28 209.744 199.588 212.925 199.588 216.72C199.588 220.519 198.338 223.754 195.844 226.422C193.357 229.093 190.292 230.427 186.648 230.427C183.005 230.427 179.903 229.111 177.351 226.48C174.807 223.841 173.534 220.696 173.534 217.053C173.534 215.068 173.889 213.207 174.604 211.472C175.327 209.737 176.285 208.284 177.482 207.105C178.685 205.931 180.062 205.009 181.617 204.344C183.178 203.672 184.783 203.332 186.431 203.332ZM179.896 216.879C179.896 219.012 180.583 220.74 181.964 222.07C183.341 223.4 184.877 224.065 186.576 224.065C188.282 224.065 189.815 223.422 191.174 222.128C192.54 220.837 193.227 219.102 193.227 216.923C193.227 214.736 192.536 212.986 191.159 211.674C189.778 210.355 188.239 209.693 186.532 209.693C184.834 209.693 183.301 210.359 181.935 211.689C180.576 213.019 179.896 214.75 179.896 216.879Z" fill="#E25532"/>
<path d="M225.964 204.055C227.37 204.749 228.075 205.515 228.075 206.354C228.075 206.74 227.894 207.315 227.54 208.074L217.622 228.2C217.361 228.721 216.96 229.147 216.422 229.473C215.879 229.801 215.326 229.964 214.759 229.964H214.397C213.797 229.964 213.23 229.801 212.691 229.473C212.149 229.147 211.744 228.721 211.477 228.2L201.573 208.074C201.204 207.315 201.023 206.74 201.023 206.354C201.023 205.515 201.732 204.749 203.149 204.055C203.937 203.65 204.54 203.448 204.956 203.448C205.379 203.448 205.697 203.498 205.91 203.592C206.131 203.679 206.333 203.845 206.518 204.084C206.738 204.373 206.937 204.691 207.11 205.038C207.291 205.385 207.754 206.383 208.498 208.031C209.239 209.672 210.035 211.41 210.884 213.25C211.741 215.094 212.547 216.836 213.299 218.484C214.05 220.125 214.473 221.04 214.571 221.231L221.757 205.486C221.948 205.034 222.118 204.676 222.263 204.416C222.696 203.773 223.221 203.448 223.839 203.448C224.464 203.448 225.172 203.65 225.964 204.055Z" fill="#E25532"/>
<path d="M241.35 216.778C245.011 220.299 247.61 222.945 249.143 224.716C249.931 225.605 250.328 226.35 250.328 226.957C250.328 227.564 249.844 228.283 248.883 229.111C247.928 229.942 247.14 230.355 246.526 230.355C245.919 230.355 245.185 229.849 244.328 228.836L236.42 219.829V226.827C236.42 227.405 236.398 227.832 236.362 228.099C236.333 228.359 236.221 228.67 236.029 229.024C235.689 229.671 234.757 229.993 233.224 229.993C231.547 229.993 230.564 229.541 230.275 228.634C230.13 228.251 230.058 227.636 230.058 226.798V206.816C230.058 206.267 230.076 205.859 230.116 205.587C230.152 205.309 230.268 204.991 230.463 204.633C230.799 203.979 231.735 203.65 233.268 203.65C234.945 203.65 235.935 204.095 236.246 204.98C236.362 205.396 236.42 206.021 236.42 206.86V213.713C239.676 210.051 242.311 207.048 244.328 204.705C245.167 203.722 245.893 203.231 246.511 203.231C247.137 203.231 247.928 203.646 248.883 204.474C249.844 205.295 250.328 206.014 250.328 206.628C250.328 207.236 249.967 207.959 249.244 208.797C247.856 210.398 245.702 212.6 242.781 215.405L241.35 216.778Z" fill="#E25532"/>
<path d="M268.231 205.529L277.933 225.569C278.337 226.389 278.54 227 278.54 227.405C278.54 228.272 277.846 229.053 276.458 229.747C275.637 230.152 274.99 230.354 274.52 230.354C274.058 230.354 273.675 230.242 273.378 230.022C273.078 229.812 272.861 229.585 272.728 229.342C272.601 229.104 272.417 228.746 272.178 228.272L270.313 224.383H260.351L258.486 228.272C258.244 228.746 258.056 229.093 257.922 229.313C257.796 229.527 257.583 229.747 257.286 229.979C256.986 230.199 256.599 230.311 256.129 230.311C255.667 230.311 255.023 230.109 254.207 229.704C252.819 229.039 252.125 228.272 252.125 227.405C252.125 227 252.331 226.389 252.746 225.569L262.433 205.486C262.701 204.937 263.106 204.496 263.648 204.156C264.186 203.82 264.754 203.65 265.354 203.65C266.644 203.65 267.602 204.279 268.231 205.529ZM265.311 214.147L262.939 219.077H267.725L265.311 214.147Z" fill="#E25532"/>
<path d="M132.433 238.421C132.498 238.566 132.538 238.696 132.549 238.812C132.567 238.92 132.577 239.079 132.577 239.289V246.966C132.577 247.602 132.404 247.975 132.057 248.079C131.883 248.137 131.659 248.166 131.392 248.166C131.121 248.166 130.908 248.145 130.756 248.094C130.6 248.047 130.481 247.993 130.394 247.935C130.308 247.87 130.242 247.776 130.206 247.66C130.156 247.498 130.134 247.255 130.134 246.937V242.296C129.903 242.585 129.563 243.044 129.122 243.67C128.677 244.288 128.392 244.678 128.269 244.841C128.153 244.996 128.07 245.101 128.023 245.159C127.983 245.217 127.871 245.3 127.691 245.405C127.506 245.513 127.307 245.564 127.098 245.564C126.895 245.564 126.707 245.517 126.534 245.419C126.368 245.325 126.248 245.228 126.172 245.13L126.071 244.985C125.876 244.754 125.507 244.262 124.958 243.511C124.416 242.759 124.127 242.354 124.09 242.296V246.966C124.09 247.179 124.08 247.339 124.062 247.443C124.051 247.552 124.007 247.667 123.931 247.79C123.794 248.043 123.44 248.166 122.861 248.166C122.29 248.166 121.94 248.043 121.806 247.79C121.726 247.667 121.68 247.552 121.661 247.443C121.651 247.328 121.647 247.161 121.647 246.937V239.26C121.647 239.05 121.651 238.891 121.661 238.783C121.68 238.678 121.726 238.551 121.806 238.407C121.94 238.168 122.298 238.045 122.876 238.045C123.125 238.045 123.342 238.082 123.527 238.147C123.707 238.204 123.823 238.27 123.874 238.335L123.96 238.407L127.098 242.542C128.666 240.46 129.718 239.086 130.25 238.421C130.401 238.172 130.77 238.045 131.349 238.045C131.934 238.045 132.296 238.172 132.433 238.421Z" fill="#65C349"/>
<path d="M139.538 238.754L143.268 246.475C143.431 246.793 143.514 247.031 143.514 247.183C143.514 247.523 143.243 247.819 142.704 248.079C142.393 248.242 142.148 248.325 141.967 248.325C141.782 248.325 141.634 248.282 141.519 248.195C141.403 248.108 141.32 248.022 141.273 247.935C141.222 247.841 141.15 247.7 141.056 247.516L140.347 246.026H136.516L135.793 247.516C135.696 247.7 135.623 247.834 135.576 247.92C135.526 248 135.446 248.087 135.33 248.181C135.215 248.267 135.063 248.311 134.882 248.311C134.698 248.311 134.452 248.228 134.145 248.065C133.603 247.816 133.335 247.523 133.335 247.183C133.335 247.031 133.415 246.793 133.581 246.475L137.311 238.739C137.416 238.53 137.571 238.36 137.774 238.233C137.984 238.11 138.208 238.045 138.439 238.045C138.931 238.045 139.296 238.284 139.538 238.754ZM138.425 242.079L137.499 243.973H139.35L138.425 242.079Z" fill="#65C349"/>
<path d="M152.029 246.46C152.174 246.8 152.246 247.038 152.246 247.183C152.246 247.53 151.957 247.826 151.378 248.065C151.089 248.199 150.851 248.267 150.67 248.267C150.486 248.267 150.337 248.224 150.222 248.137C150.106 248.051 150.023 247.96 149.976 247.863C149.878 247.689 149.517 246.858 148.892 245.361L148.458 245.39H146.723V246.952C146.723 247.165 146.712 247.324 146.694 247.429C146.683 247.537 146.64 247.657 146.564 247.79C146.437 248.043 146.076 248.166 145.479 248.166C144.843 248.166 144.467 248 144.352 247.66C144.294 247.498 144.265 247.255 144.265 246.937V239.26C144.265 239.05 144.269 238.891 144.279 238.783C144.297 238.678 144.344 238.551 144.424 238.407C144.547 238.168 144.905 238.045 145.494 238.045H148.487C149.296 238.045 150.084 238.342 150.858 238.927C151.223 239.209 151.527 239.592 151.769 240.084C152.007 240.576 152.13 241.121 152.13 241.718C152.13 242.759 151.783 243.619 151.089 244.291C151.292 244.783 151.602 245.506 152.029 246.46ZM146.723 242.932H148.487C148.754 242.932 149.022 242.831 149.282 242.629C149.549 242.426 149.687 242.123 149.687 241.718C149.687 241.313 149.549 241.009 149.282 240.807C149.022 240.597 148.747 240.489 148.458 240.489H146.723V242.932Z" fill="#65C349"/>
<path d="M157.346 243.091C158.752 244.45 159.75 245.47 160.339 246.142C160.646 246.489 160.802 246.785 160.802 247.024C160.802 247.255 160.614 247.53 160.238 247.848C159.869 248.166 159.573 248.325 159.341 248.325C159.11 248.325 158.824 248.13 158.488 247.732L155.452 244.262V246.966C155.452 247.19 155.441 247.353 155.423 247.458C155.412 247.555 155.369 247.671 155.293 247.805C155.167 248.058 154.805 248.181 154.209 248.181C153.572 248.181 153.197 248.007 153.081 247.66C153.023 247.508 152.994 247.27 152.994 246.952V239.26C152.994 239.05 152.998 238.891 153.009 238.783C153.027 238.678 153.074 238.551 153.153 238.407C153.276 238.168 153.634 238.045 154.223 238.045C154.866 238.045 155.253 238.215 155.38 238.551C155.427 238.707 155.452 238.949 155.452 239.274V241.906C156.703 240.5 157.715 239.343 158.488 238.436C158.814 238.06 159.096 237.872 159.327 237.872C159.565 237.872 159.869 238.031 160.238 238.349C160.614 238.667 160.802 238.949 160.802 239.188C160.802 239.419 160.661 239.694 160.382 240.012C159.851 240.63 159.023 241.479 157.896 242.556L157.346 243.091Z" fill="#65C349"/>
<path d="M164.292 245.737H168.542C168.752 245.737 168.911 245.744 169.02 245.752C169.124 245.763 169.251 245.806 169.395 245.882C169.645 246.019 169.771 246.381 169.771 246.966C169.771 247.613 169.598 247.989 169.251 248.094C169.095 248.152 168.853 248.181 168.528 248.181H163.048C162.412 248.181 162.036 248.007 161.92 247.66C161.863 247.508 161.834 247.27 161.834 246.952V239.26C161.834 238.79 161.92 238.472 162.094 238.306C162.275 238.132 162.607 238.045 163.092 238.045H168.542C168.752 238.045 168.911 238.053 169.02 238.06C169.124 238.071 169.251 238.114 169.395 238.19C169.645 238.317 169.771 238.678 169.771 239.274C169.771 239.921 169.598 240.297 169.251 240.402C169.095 240.46 168.853 240.489 168.528 240.489H164.292V241.891H167.024C167.234 241.891 167.393 241.899 167.501 241.906C167.606 241.917 167.733 241.96 167.877 242.036C168.116 242.162 168.239 242.524 168.239 243.12C168.239 243.767 168.065 244.143 167.718 244.248C167.563 244.306 167.321 244.335 166.995 244.335H164.292V245.737Z" fill="#65C349"/>
<path d="M171.325 238.031H179.016C179.313 238.031 179.53 238.067 179.667 238.132C179.812 238.201 179.902 238.313 179.942 238.465C179.989 238.609 180.014 238.804 180.014 239.043C180.014 239.274 179.989 239.462 179.942 239.607C179.902 239.751 179.826 239.853 179.71 239.91C179.544 239.99 179.309 240.026 179.002 240.026H176.371V246.995C176.371 247.208 176.36 247.367 176.342 247.472C176.331 247.57 176.287 247.685 176.212 247.819C176.143 247.957 176.024 248.051 175.85 248.108C175.677 248.159 175.445 248.181 175.156 248.181C174.874 248.181 174.65 248.159 174.477 248.108C174.303 248.051 174.18 247.957 174.115 247.819C174.046 247.685 174.003 247.566 173.985 247.458C173.974 247.353 173.97 247.194 173.97 246.981V240.026H171.31C171.021 240.026 170.804 239.994 170.66 239.925C170.522 239.86 170.432 239.751 170.385 239.607C170.334 239.455 170.312 239.26 170.312 239.029C170.312 238.79 170.334 238.595 170.385 238.45C170.432 238.306 170.508 238.204 170.616 238.147C170.79 238.071 171.025 238.031 171.325 238.031Z" fill="#65C349"/>
<path d="M188.261 240.084C188.5 240.576 188.623 241.121 188.623 241.718C188.623 242.318 188.5 242.86 188.261 243.352C188.019 243.836 187.712 244.216 187.336 244.494C186.563 245.094 185.767 245.39 184.95 245.39H183.23V246.952C183.23 247.165 183.219 247.324 183.201 247.429C183.19 247.537 183.147 247.657 183.071 247.79C182.944 248.043 182.583 248.166 181.986 248.166C181.35 248.166 180.974 248 180.859 247.66C180.801 247.498 180.772 247.255 180.772 246.937V239.26C180.772 239.05 180.776 238.891 180.786 238.783C180.805 238.678 180.851 238.551 180.931 238.407C181.054 238.168 181.412 238.045 182.001 238.045H184.965C185.775 238.045 186.563 238.342 187.336 238.927C187.712 239.209 188.019 239.592 188.261 240.084ZM184.965 242.932C185.243 242.932 185.514 242.831 185.775 242.629C186.042 242.426 186.179 242.123 186.179 241.718C186.179 241.313 186.042 241.009 185.775 240.807C185.514 240.597 185.24 240.489 184.95 240.489H183.23V242.932H184.965Z" fill="#65C349"/>
<path d="M191.973 246.128H195.732C196.039 246.128 196.26 246.167 196.397 246.243C196.531 246.312 196.621 246.417 196.672 246.561C196.719 246.706 196.744 246.905 196.744 247.154C196.744 247.396 196.719 247.595 196.672 247.747C196.621 247.892 196.545 247.989 196.44 248.036C196.267 248.134 196.025 248.181 195.718 248.181H190.729C190.093 248.181 189.717 248.007 189.602 247.66C189.544 247.508 189.515 247.27 189.515 246.952V239.26C189.515 239.05 189.519 238.891 189.529 238.783C189.547 238.678 189.594 238.551 189.674 238.407C189.797 238.168 190.155 238.045 190.744 238.045C191.387 238.045 191.774 238.215 191.901 238.551C191.948 238.707 191.973 238.949 191.973 239.274V246.128Z" fill="#65C349"/>
<path d="M203.491 238.754L207.221 246.475C207.384 246.793 207.467 247.031 207.467 247.183C207.467 247.523 207.196 247.819 206.657 248.079C206.346 248.242 206.101 248.325 205.92 248.325C205.736 248.325 205.587 248.282 205.472 248.195C205.356 248.108 205.273 248.022 205.226 247.935C205.175 247.841 205.103 247.7 205.009 247.516L204.301 246.026H200.469L199.746 247.516C199.649 247.7 199.576 247.834 199.529 247.92C199.479 248 199.399 248.087 199.284 248.181C199.168 248.267 199.016 248.311 198.835 248.311C198.651 248.311 198.405 248.228 198.098 248.065C197.556 247.816 197.288 247.523 197.288 247.183C197.288 247.031 197.368 246.793 197.534 246.475L201.264 238.739C201.369 238.53 201.525 238.36 201.727 238.233C201.937 238.11 202.161 238.045 202.392 238.045C202.884 238.045 203.249 238.284 203.491 238.754ZM202.378 242.079L201.452 243.973H203.303L202.378 242.079Z" fill="#65C349"/>
<path d="M214.565 245.52L214.811 245.347C215.118 245.166 215.339 245.072 215.476 245.072C215.754 245.072 216.062 245.329 216.401 245.838C216.604 246.167 216.705 246.428 216.705 246.619C216.705 246.814 216.64 246.977 216.517 247.111C216.391 247.237 216.246 247.353 216.083 247.458C215.917 247.555 215.758 247.653 215.606 247.747C215.451 247.834 215.136 247.956 214.666 248.108C214.193 248.253 213.741 248.325 213.307 248.325C212.874 248.325 212.429 248.267 211.977 248.152C211.533 248.036 211.07 247.844 210.589 247.573C210.116 247.295 209.693 246.962 209.317 246.576C208.941 246.182 208.626 245.679 208.377 245.072C208.135 244.458 208.016 243.785 208.016 243.062C208.016 242.339 208.135 241.689 208.377 241.11C208.616 240.525 208.919 240.037 209.288 239.65C209.664 239.267 210.09 238.942 210.575 238.681C211.478 238.19 212.386 237.944 213.293 237.944C213.727 237.944 214.164 238.013 214.609 238.147C215.06 238.284 215.404 238.418 215.635 238.551L215.968 238.739C216.13 238.848 216.26 238.934 216.358 239C216.597 239.195 216.72 239.412 216.72 239.65C216.72 239.892 216.622 240.149 216.43 240.416C216.062 240.919 215.74 241.168 215.462 241.168C215.295 241.168 215.06 241.067 214.753 240.865C214.366 240.547 213.85 240.388 213.206 240.388C212.606 240.388 212.013 240.597 211.428 241.009C211.157 241.212 210.925 241.501 210.734 241.877C210.549 242.245 210.459 242.665 210.459 243.135C210.459 243.597 210.549 244.013 210.734 244.378C210.925 244.747 211.16 245.036 211.442 245.246C212.01 245.65 212.599 245.853 213.206 245.853C213.484 245.853 213.748 245.82 214.001 245.752C214.262 245.676 214.45 245.6 214.565 245.52Z" fill="#65C349"/>
<path d="M220.069 245.737H224.32C224.529 245.737 224.688 245.744 224.797 245.752C224.902 245.763 225.028 245.806 225.173 245.882C225.422 246.019 225.549 246.381 225.549 246.966C225.549 247.613 225.375 247.989 225.028 248.094C224.873 248.152 224.631 248.181 224.305 248.181H218.826C218.189 248.181 217.814 248.007 217.698 247.66C217.64 247.508 217.611 247.27 217.611 246.952V239.26C217.611 238.79 217.698 238.472 217.871 238.306C218.052 238.132 218.385 238.045 218.869 238.045H224.32C224.529 238.045 224.688 238.053 224.797 238.06C224.902 238.071 225.028 238.114 225.173 238.19C225.422 238.317 225.549 238.678 225.549 239.274C225.549 239.921 225.375 240.297 225.028 240.402C224.873 240.46 224.631 240.489 224.305 240.489H220.069V241.891H222.802C223.011 241.891 223.17 241.899 223.279 241.906C223.384 241.917 223.51 241.96 223.655 242.036C223.893 242.162 224.016 242.524 224.016 243.12C224.016 243.767 223.843 244.143 223.496 244.248C223.34 244.306 223.098 244.335 222.773 244.335H220.069V245.737Z" fill="#65C349"/>
</svg>
