<svg width="40" height="40" viewBox="0 0 40 40" fill="none" xmlns="http://www.w3.org/2000/svg">
<path d="M40 20C40 8.95431 31.0457 0 20 0C8.95431 0 0 8.95431 0 20C0 31.0457 8.95431 40 20 40C31.0457 40 40 31.0457 40 20Z" fill="white"/>
<path fill-rule="evenodd" clip-rule="evenodd" d="M29.7875 20.2273C29.7875 19.5182 29.7239 18.8364 29.6057 18.1818H20.1875V22.05H25.5693C25.3375 23.3 24.633 24.3591 23.5739 25.0682V27.5773H26.8057C28.6966 25.8364 29.7875 23.2727 29.7875 20.2273Z" fill="#4285F4"/>
<path fill-rule="evenodd" clip-rule="evenodd" d="M20.1869 30C22.8869 30 25.1505 29.1045 26.8051 27.5772L23.5732 25.0682C22.6778 25.6682 21.5323 26.0227 20.1869 26.0227C17.5823 26.0227 15.3778 24.2636 14.5914 21.9H11.2505V24.4909C12.8959 27.7591 16.2778 30 20.1869 30Z" fill="#34A853"/>
<path fill-rule="evenodd" clip-rule="evenodd" d="M14.5921 21.9C14.3921 21.3 14.2784 20.659 14.2784 20C14.2784 19.3409 14.3921 18.6999 14.5921 18.0999V15.509H11.2511C10.5739 16.859 10.1875 18.3863 10.1875 20C10.1875 21.6136 10.5739 23.1409 11.2511 24.4909L14.5921 21.9Z" fill="#FBBC05"/>
<path fill-rule="evenodd" clip-rule="evenodd" d="M20.1869 13.9773C21.6551 13.9773 22.9732 14.4818 24.0096 15.4727L26.8778 12.6046C25.146 10.9909 22.8823 10 20.1869 10C16.2778 10 12.8959 12.2409 11.2505 15.5091L14.5914 18.1C15.3778 15.7364 17.5823 13.9773 20.1869 13.9773Z" fill="#EA4335"/>
</svg>
