<svg width="30" height="30" viewBox="0 0 30 30" fill="none" xmlns="http://www.w3.org/2000/svg">
<path d="M7.74667 26.1679L19.0699 15.5107L24.3984 20.8393M7.74667 26.1679H21.0681C23.2753 26.1679 25.0645 24.3786 25.0645 22.1714V15.5107M7.74667 26.1679C5.53951 26.1679 3.75024 24.3786 3.75024 22.1714V8.85001C3.75024 6.64284 5.53951 4.85358 7.74667 4.85358H16.4056M23.7324 11.2857L23.7324 7.51787M23.7324 7.51787L23.7324 3.75M23.7324 7.51787L19.9645 7.51787M23.7324 7.51787L27.5002 7.51787M11.7431 10.8482C11.7431 11.9518 10.8485 12.8464 9.74488 12.8464C8.6413 12.8464 7.74667 11.9518 7.74667 10.8482C7.74667 9.74464 8.6413 8.85001 9.74488 8.85001C10.8485 8.85001 11.7431 9.74464 11.7431 10.8482Z" stroke="#717171" stroke-width="2" stroke-linecap="round" stroke-linejoin="round"/>
</svg>
