<svg xmlns="http://www.w3.org/2000/svg" xmlns:xlink="http://www.w3.org/1999/xlink" width="500" zoomAndPan="magnify" viewBox="0 0 375 374.999991" height="500" preserveAspectRatio="xMidYMid meet" version="1.0"><defs><g/><clipPath id="f19a8061f3"><path d="M 111 92 L 347 92 L 347 207 L 111 207 Z M 111 92 " clip-rule="nonzero"/></clipPath><clipPath id="c452713ac1"><path d="M 25.46875 131.839844 L 255.960938 0.0703125 L 349.390625 163.5 L 118.898438 295.269531 Z M 25.46875 131.839844 " clip-rule="nonzero"/></clipPath><clipPath id="ba3004095c"><path d="M 25.46875 131.839844 L 255.960938 0.0703125 L 349.390625 163.5 L 118.898438 295.269531 Z M 25.46875 131.839844 " clip-rule="nonzero"/></clipPath><clipPath id="5519bebdb5"><path d="M 36 108 L 104 108 L 104 188 L 36 188 Z M 36 108 " clip-rule="nonzero"/></clipPath><clipPath id="1593d97ecd"><path d="M 25.46875 131.839844 L 255.960938 0.0703125 L 349.390625 163.5 L 118.898438 295.269531 Z M 25.46875 131.839844 " clip-rule="nonzero"/></clipPath><clipPath id="5fe76c5e2a"><path d="M 25.46875 131.839844 L 255.960938 0.0703125 L 349.390625 163.5 L 118.898438 295.269531 Z M 25.46875 131.839844 " clip-rule="nonzero"/></clipPath></defs><g clip-path="url(#f19a8061f3)"><g clip-path="url(#c452713ac1)"><g clip-path="url(#ba3004095c)"><path fill="#e25532" d="M 249.242188 190.539062 C 261.261719 190.242188 283.625 187.046875 301.21875 182.910156 C 318.832031 178.765625 331.632812 173.65625 338.964844 169.207031 C 346.273438 164.769531 348.105469 160.96875 343.824219 156.113281 C 339.558594 151.25 329.195312 145.300781 320.542969 142.03125 C 311.894531 138.765625 304.941406 138.195312 300.574219 139.105469 C 296.230469 140.003906 294.453125 142.394531 292.964844 146.46875 C 291.503906 150.554688 290.296875 156.308594 288.695312 159.277344 C 287.0625 162.238281 285.019531 162.394531 282.875 158.007812 C 280.699219 153.609375 278.472656 144.671875 277.257812 139.726562 C 276.050781 134.75 275.878906 133.8125 275.644531 131.8125 C 275.394531 129.828125 275.0625 126.792969 274.632812 125.089844 C 274.175781 123.378906 273.605469 122.972656 259.410156 118.644531 C 245.214844 114.3125 217.359375 106.042969 203.324219 101.722656 C 189.273438 97.414062 189.007812 97.042969 187.335938 104.390625 C 185.683594 111.730469 182.632812 126.753906 179.722656 134.210938 C 176.785156 141.660156 173.988281 141.542969 172.722656 140.1875 C 171.441406 138.816406 171.679688 136.183594 170.449219 128.261719 C 169.21875 120.335938 166.523438 107.117188 163.128906 100.09375 C 159.730469 93.097656 155.625 92.324219 149.628906 93.207031 C 143.628906 94.117188 135.726562 96.660156 128.710938 103.34375 C 121.667969 110.023438 115.5 120.824219 113.011719 134.199219 C 110.515625 147.605469 111.6875 163.566406 114.15625 175.203125 C 116.625 186.835938 120.375 194.125 125.957031 198.574219 C 131.542969 203.019531 138.964844 204.597656 150.339844 205.449219 C 161.695312 206.3125 177.019531 206.4375 188.285156 205.871094 C 199.550781 205.304688 206.769531 204.0625 211.304688 198.949219 C 215.816406 193.847656 217.644531 184.902344 219.371094 177.652344 C 221.078125 170.414062 222.710938 164.855469 224.269531 161.808594 C 225.824219 158.761719 227.300781 158.203125 228.183594 159.207031 C 229.039062 160.199219 229.289062 162.730469 230.136719 167.394531 C 231.011719 172.0625 232.472656 178.84375 234.039062 183.535156 C 235.582031 188.238281 237.242188 190.824219 249.242188 190.539062 Z M 249.242188 190.539062 " fill-opacity="1" fill-rule="evenodd"/></g></g></g><g clip-path="url(#5519bebdb5)"><g clip-path="url(#1593d97ecd)"><g clip-path="url(#5fe76c5e2a)"><path fill="#65c349" d="M 91.078125 175.558594 C 84.75 179.359375 72.070312 185.722656 65.042969 187.246094 C 58.011719 188.769531 56.625 185.433594 58.746094 180.738281 C 60.863281 176.070312 66.457031 170.039062 66.410156 166.273438 C 66.359375 162.507812 60.628906 161.027344 53.714844 157.707031 C 46.78125 154.394531 38.640625 149.25 37.1875 145.976562 C 35.710938 142.714844 40.9375 141.3125 47.652344 139.734375 C 54.375 138.175781 62.613281 136.453125 66.914062 133.972656 C 71.191406 131.5 71.515625 128.25 70.921875 124.480469 C 70.328125 120.714844 68.785156 116.425781 68.527344 112.933594 C 68.265625 109.472656 69.289062 106.808594 75.195312 108.550781 C 81.113281 110.3125 91.917969 116.480469 97.695312 121.726562 C 103.476562 126.972656 104.222656 131.324219 103.3125 139.097656 C 102.402344 146.867188 99.824219 158.085938 98.554688 164.320312 C 97.304688 170.542969 97.382812 171.773438 91.078125 175.558594 Z M 91.078125 175.558594 " fill-opacity="1" fill-rule="evenodd"/></g></g></g><g fill="#e25532" fill-opacity="1"><g transform="translate(73.362165, 248.551523)"><g><path d="M 31.796875 -27.375 C 32.003906 -26.988281 32.128906 -26.640625 32.171875 -26.328125 C 32.210938 -26.015625 32.234375 -25.5625 32.234375 -24.96875 L 32.234375 -3.421875 C 32.234375 -1.628906 31.738281 -0.578125 30.75 -0.265625 C 30.257812 -0.109375 29.640625 -0.03125 28.890625 -0.03125 C 28.140625 -0.03125 27.539062 -0.09375 27.09375 -0.21875 C 26.65625 -0.351562 26.320312 -0.507812 26.09375 -0.6875 C 25.863281 -0.875 25.679688 -1.132812 25.546875 -1.46875 C 25.421875 -1.914062 25.359375 -2.59375 25.359375 -3.5 L 25.359375 -16.5 C 24.710938 -15.695312 23.765625 -14.421875 22.515625 -12.671875 C 21.273438 -10.929688 20.484375 -9.835938 20.140625 -9.390625 C 19.804688 -8.953125 19.578125 -8.648438 19.453125 -8.484375 C 19.328125 -8.316406 19.007812 -8.082031 18.5 -7.78125 C 18 -7.488281 17.457031 -7.34375 16.875 -7.34375 C 16.289062 -7.34375 15.757812 -7.476562 15.28125 -7.75 C 14.800781 -8.019531 14.457031 -8.285156 14.25 -8.546875 L 13.9375 -8.96875 C 13.414062 -9.613281 12.390625 -10.988281 10.859375 -13.09375 C 9.335938 -15.207031 8.515625 -16.34375 8.390625 -16.5 L 8.390625 -3.421875 C 8.390625 -2.828125 8.367188 -2.378906 8.328125 -2.078125 C 8.285156 -1.773438 8.160156 -1.445312 7.953125 -1.09375 C 7.566406 -0.382812 6.5625 -0.03125 4.9375 -0.03125 C 3.351562 -0.03125 2.367188 -0.382812 1.984375 -1.09375 C 1.773438 -1.445312 1.648438 -1.78125 1.609375 -2.09375 C 1.566406 -2.40625 1.546875 -2.875 1.546875 -3.5 L 1.546875 -25.046875 C 1.546875 -25.640625 1.566406 -26.082031 1.609375 -26.375 C 1.648438 -26.675781 1.773438 -27.019531 1.984375 -27.40625 C 2.367188 -28.082031 3.378906 -28.421875 5.015625 -28.421875 C 5.710938 -28.421875 6.3125 -28.335938 6.8125 -28.171875 C 7.320312 -28.003906 7.648438 -27.828125 7.796875 -27.640625 L 8.03125 -27.40625 L 16.84375 -15.84375 C 21.25 -21.664062 24.191406 -25.507812 25.671875 -27.375 C 26.109375 -28.070312 27.144531 -28.421875 28.78125 -28.421875 C 30.425781 -28.421875 31.429688 -28.070312 31.796875 -27.375 Z M 31.796875 -27.375 "/></g></g></g><g fill="#e25532" fill-opacity="1"><g transform="translate(107.149311, 248.551523)"><g><path d="M 14.90625 -28.8125 C 18.738281 -28.8125 22.066406 -27.425781 24.890625 -24.65625 C 27.710938 -21.882812 29.125 -18.445312 29.125 -14.34375 C 29.125 -10.238281 27.773438 -6.742188 25.078125 -3.859375 C 22.390625 -0.972656 19.078125 0.46875 15.140625 0.46875 C 11.203125 0.46875 7.851562 -0.953125 5.09375 -3.796875 C 2.34375 -6.648438 0.96875 -10.046875 0.96875 -13.984375 C 0.96875 -16.128906 1.351562 -18.140625 2.125 -20.015625 C 2.90625 -21.890625 3.941406 -23.460938 5.234375 -24.734375 C 6.535156 -26.003906 8.023438 -27 9.703125 -27.71875 C 11.390625 -28.445312 13.125 -28.8125 14.90625 -28.8125 Z M 7.84375 -14.171875 C 7.84375 -11.867188 8.585938 -10 10.078125 -8.5625 C 11.566406 -7.125 13.226562 -6.40625 15.0625 -6.40625 C 16.90625 -6.40625 18.5625 -7.101562 20.03125 -8.5 C 21.507812 -9.894531 22.25 -11.769531 22.25 -14.125 C 22.25 -16.488281 21.503906 -18.378906 20.015625 -19.796875 C 18.523438 -21.222656 16.859375 -21.9375 15.015625 -21.9375 C 13.179688 -21.9375 11.523438 -21.21875 10.046875 -19.78125 C 8.578125 -18.34375 7.84375 -16.472656 7.84375 -14.171875 Z M 7.84375 -14.171875 "/></g></g></g><g fill="#e25532" fill-opacity="1"><g transform="translate(137.247048, 248.551523)"><g><path d="M 23.328125 -4.8125 C 23.722656 -3.882812 23.921875 -3.210938 23.921875 -2.796875 C 23.921875 -1.804688 23.117188 -0.976562 21.515625 -0.3125 C 20.679688 0.0507812 20.007812 0.234375 19.5 0.234375 C 19 0.234375 18.585938 0.113281 18.265625 -0.125 C 17.941406 -0.375 17.703125 -0.628906 17.546875 -0.890625 C 17.285156 -1.378906 16.273438 -3.722656 14.515625 -7.921875 L 13.3125 -7.84375 L 8.421875 -7.84375 L 8.421875 -3.453125 C 8.421875 -2.859375 8.398438 -2.410156 8.359375 -2.109375 C 8.328125 -1.816406 8.207031 -1.476562 8 -1.09375 C 7.632812 -0.382812 6.625 -0.03125 4.96875 -0.03125 C 3.15625 -0.03125 2.09375 -0.507812 1.78125 -1.46875 C 1.625 -1.914062 1.546875 -2.59375 1.546875 -3.5 L 1.546875 -25.046875 C 1.546875 -25.640625 1.566406 -26.082031 1.609375 -26.375 C 1.648438 -26.675781 1.773438 -27.019531 1.984375 -27.40625 C 2.347656 -28.113281 3.359375 -28.46875 5.015625 -28.46875 L 13.390625 -28.46875 C 15.671875 -28.46875 17.882812 -27.632812 20.03125 -25.96875 C 21.070312 -25.164062 21.925781 -24.078125 22.59375 -22.703125 C 23.269531 -21.335938 23.609375 -19.8125 23.609375 -18.125 C 23.609375 -15.207031 22.640625 -12.800781 20.703125 -10.90625 C 21.265625 -9.539062 22.140625 -7.507812 23.328125 -4.8125 Z M 8.421875 -14.71875 L 13.390625 -14.71875 C 14.140625 -14.71875 14.890625 -15 15.640625 -15.5625 C 16.398438 -16.132812 16.78125 -16.988281 16.78125 -18.125 C 16.78125 -19.269531 16.398438 -20.132812 15.640625 -20.71875 C 14.890625 -21.300781 14.113281 -21.59375 13.3125 -21.59375 L 8.421875 -21.59375 Z M 8.421875 -14.71875 "/></g></g></g><g fill="#e25532" fill-opacity="1"><g transform="translate(161.752445, 248.551523)"><g><path d="M 13.75 -14.28125 C 17.707031 -10.476562 20.515625 -7.617188 22.171875 -5.703125 C 23.023438 -4.742188 23.453125 -3.9375 23.453125 -3.28125 C 23.453125 -2.625 22.929688 -1.847656 21.890625 -0.953125 C 20.859375 -0.0546875 20.007812 0.390625 19.34375 0.390625 C 18.6875 0.390625 17.894531 -0.15625 16.96875 -1.25 L 8.421875 -10.984375 L 8.421875 -3.421875 C 8.421875 -2.796875 8.398438 -2.335938 8.359375 -2.046875 C 8.328125 -1.765625 8.207031 -1.429688 8 -1.046875 C 7.632812 -0.347656 6.625 0 4.96875 0 C 3.15625 0 2.09375 -0.488281 1.78125 -1.46875 C 1.625 -1.882812 1.546875 -2.546875 1.546875 -3.453125 L 1.546875 -25.046875 C 1.546875 -25.640625 1.566406 -26.082031 1.609375 -26.375 C 1.648438 -26.675781 1.773438 -27.019531 1.984375 -27.40625 C 2.347656 -28.113281 3.359375 -28.46875 5.015625 -28.46875 C 6.828125 -28.46875 7.898438 -27.988281 8.234375 -27.03125 C 8.359375 -26.582031 8.421875 -25.90625 8.421875 -25 L 8.421875 -17.59375 C 11.941406 -21.550781 14.789062 -24.796875 16.96875 -27.328125 C 17.875 -28.390625 18.660156 -28.921875 19.328125 -28.921875 C 20.003906 -28.921875 20.859375 -28.472656 21.890625 -27.578125 C 22.929688 -26.691406 23.453125 -25.914062 23.453125 -25.25 C 23.453125 -24.59375 23.0625 -23.8125 22.28125 -22.90625 C 20.78125 -21.175781 18.453125 -18.796875 15.296875 -15.765625 Z M 13.75 -14.28125 "/></g></g></g><g fill="#e25532" fill-opacity="1"><g transform="translate(186.56852, 248.551523)"><g><path d="M 14.90625 -28.8125 C 18.738281 -28.8125 22.066406 -27.425781 24.890625 -24.65625 C 27.710938 -21.882812 29.125 -18.445312 29.125 -14.34375 C 29.125 -10.238281 27.773438 -6.742188 25.078125 -3.859375 C 22.390625 -0.972656 19.078125 0.46875 15.140625 0.46875 C 11.203125 0.46875 7.851562 -0.953125 5.09375 -3.796875 C 2.34375 -6.648438 0.96875 -10.046875 0.96875 -13.984375 C 0.96875 -16.128906 1.351562 -18.140625 2.125 -20.015625 C 2.90625 -21.890625 3.941406 -23.460938 5.234375 -24.734375 C 6.535156 -26.003906 8.023438 -27 9.703125 -27.71875 C 11.390625 -28.445312 13.125 -28.8125 14.90625 -28.8125 Z M 7.84375 -14.171875 C 7.84375 -11.867188 8.585938 -10 10.078125 -8.5625 C 11.566406 -7.125 13.226562 -6.40625 15.0625 -6.40625 C 16.90625 -6.40625 18.5625 -7.101562 20.03125 -8.5 C 21.507812 -9.894531 22.25 -11.769531 22.25 -14.125 C 22.25 -16.488281 21.503906 -18.378906 20.015625 -19.796875 C 18.523438 -21.222656 16.859375 -21.9375 15.015625 -21.9375 C 13.179688 -21.9375 11.523438 -21.21875 10.046875 -19.78125 C 8.578125 -18.34375 7.84375 -16.472656 7.84375 -14.171875 Z M 7.84375 -14.171875 "/></g></g></g><g fill="#e25532" fill-opacity="1"><g transform="translate(216.666257, 248.551523)"><g><path d="M 27.53125 -28.03125 C 29.050781 -27.28125 29.8125 -26.453125 29.8125 -25.546875 C 29.8125 -25.128906 29.617188 -24.507812 29.234375 -23.6875 L 18.515625 -1.9375 C 18.234375 -1.375 17.800781 -0.914062 17.21875 -0.5625 C 16.632812 -0.207031 16.035156 -0.03125 15.421875 -0.03125 L 15.03125 -0.03125 C 14.382812 -0.03125 13.769531 -0.207031 13.1875 -0.5625 C 12.601562 -0.914062 12.164062 -1.375 11.875 -1.9375 L 1.171875 -23.6875 C 0.773438 -24.507812 0.578125 -25.128906 0.578125 -25.546875 C 0.578125 -26.453125 1.34375 -27.28125 2.875 -28.03125 C 3.726562 -28.46875 4.378906 -28.6875 4.828125 -28.6875 C 5.285156 -28.6875 5.628906 -28.632812 5.859375 -28.53125 C 6.097656 -28.4375 6.316406 -28.257812 6.515625 -28 C 6.753906 -27.6875 6.96875 -27.34375 7.15625 -26.96875 C 7.351562 -26.59375 7.851562 -25.515625 8.65625 -23.734375 C 9.457031 -21.960938 10.316406 -20.082031 11.234375 -18.09375 C 12.160156 -16.101562 13.03125 -14.21875 13.84375 -12.4375 C 14.65625 -10.664062 15.113281 -9.675781 15.21875 -9.46875 L 22.984375 -26.484375 C 23.191406 -26.972656 23.375 -27.359375 23.53125 -27.640625 C 24 -28.335938 24.566406 -28.6875 25.234375 -28.6875 C 25.910156 -28.6875 26.675781 -28.46875 27.53125 -28.03125 Z M 27.53125 -28.03125 "/></g></g></g><g fill="#e25532" fill-opacity="1"><g transform="translate(247.074693, 248.551523)"><g><path d="M 13.75 -14.28125 C 17.707031 -10.476562 20.515625 -7.617188 22.171875 -5.703125 C 23.023438 -4.742188 23.453125 -3.9375 23.453125 -3.28125 C 23.453125 -2.625 22.929688 -1.847656 21.890625 -0.953125 C 20.859375 -0.0546875 20.007812 0.390625 19.34375 0.390625 C 18.6875 0.390625 17.894531 -0.15625 16.96875 -1.25 L 8.421875 -10.984375 L 8.421875 -3.421875 C 8.421875 -2.796875 8.398438 -2.335938 8.359375 -2.046875 C 8.328125 -1.765625 8.207031 -1.429688 8 -1.046875 C 7.632812 -0.347656 6.625 0 4.96875 0 C 3.15625 0 2.09375 -0.488281 1.78125 -1.46875 C 1.625 -1.882812 1.546875 -2.546875 1.546875 -3.453125 L 1.546875 -25.046875 C 1.546875 -25.640625 1.566406 -26.082031 1.609375 -26.375 C 1.648438 -26.675781 1.773438 -27.019531 1.984375 -27.40625 C 2.347656 -28.113281 3.359375 -28.46875 5.015625 -28.46875 C 6.828125 -28.46875 7.898438 -27.988281 8.234375 -27.03125 C 8.359375 -26.582031 8.421875 -25.90625 8.421875 -25 L 8.421875 -17.59375 C 11.941406 -21.550781 14.789062 -24.796875 16.96875 -27.328125 C 17.875 -28.390625 18.660156 -28.921875 19.328125 -28.921875 C 20.003906 -28.921875 20.859375 -28.472656 21.890625 -27.578125 C 22.929688 -26.691406 23.453125 -25.914062 23.453125 -25.25 C 23.453125 -24.59375 23.0625 -23.8125 22.28125 -22.90625 C 20.78125 -21.175781 18.453125 -18.796875 15.296875 -15.765625 Z M 13.75 -14.28125 "/></g></g></g><g fill="#e25532" fill-opacity="1"><g transform="translate(271.890768, 248.551523)"><g><path d="M 17.984375 -26.4375 L 28.46875 -4.78125 C 28.90625 -3.894531 29.125 -3.234375 29.125 -2.796875 C 29.125 -1.859375 28.375 -1.015625 26.875 -0.265625 C 25.988281 0.171875 25.289062 0.390625 24.78125 0.390625 C 24.28125 0.390625 23.867188 0.269531 23.546875 0.03125 C 23.222656 -0.195312 22.988281 -0.441406 22.84375 -0.703125 C 22.707031 -0.960938 22.507812 -1.347656 22.25 -1.859375 L 20.234375 -6.0625 L 9.46875 -6.0625 L 7.453125 -1.859375 C 7.191406 -1.347656 6.988281 -0.972656 6.84375 -0.734375 C 6.707031 -0.503906 6.476562 -0.265625 6.15625 -0.015625 C 5.832031 0.222656 5.414062 0.34375 4.90625 0.34375 C 4.40625 0.34375 3.710938 0.125 2.828125 -0.3125 C 1.328125 -1.03125 0.578125 -1.859375 0.578125 -2.796875 C 0.578125 -3.234375 0.800781 -3.894531 1.25 -4.78125 L 11.71875 -26.484375 C 12.007812 -27.078125 12.445312 -27.554688 13.03125 -27.921875 C 13.613281 -28.285156 14.226562 -28.46875 14.875 -28.46875 C 16.269531 -28.46875 17.304688 -27.789062 17.984375 -26.4375 Z M 14.828125 -17.125 L 12.265625 -11.796875 L 17.4375 -11.796875 Z M 14.828125 -17.125 "/></g></g></g><g fill="#65c349" fill-opacity="1"><g transform="translate(130.869056, 268.206769)"><g><path d="M 12.25 -10.546875 C 12.320312 -10.390625 12.363281 -10.25 12.375 -10.125 C 12.394531 -10.007812 12.40625 -9.835938 12.40625 -9.609375 L 12.40625 -1.3125 C 12.40625 -0.625 12.21875 -0.222656 11.84375 -0.109375 C 11.65625 -0.046875 11.414062 -0.015625 11.125 -0.015625 C 10.832031 -0.015625 10.601562 -0.0390625 10.4375 -0.09375 C 10.269531 -0.144531 10.140625 -0.203125 10.046875 -0.265625 C 9.953125 -0.335938 9.882812 -0.4375 9.84375 -0.5625 C 9.789062 -0.738281 9.765625 -1 9.765625 -1.34375 L 9.765625 -6.359375 C 9.515625 -6.046875 9.148438 -5.550781 8.671875 -4.875 C 8.191406 -4.207031 7.882812 -3.785156 7.75 -3.609375 C 7.625 -3.441406 7.535156 -3.328125 7.484375 -3.265625 C 7.441406 -3.203125 7.320312 -3.113281 7.125 -3 C 6.925781 -2.882812 6.710938 -2.828125 6.484375 -2.828125 C 6.265625 -2.828125 6.0625 -2.878906 5.875 -2.984375 C 5.695312 -3.085938 5.566406 -3.191406 5.484375 -3.296875 L 5.375 -3.453125 C 5.164062 -3.703125 4.765625 -4.234375 4.171875 -5.046875 C 3.585938 -5.859375 3.273438 -6.296875 3.234375 -6.359375 L 3.234375 -1.3125 C 3.234375 -1.082031 3.222656 -0.910156 3.203125 -0.796875 C 3.191406 -0.679688 3.144531 -0.554688 3.0625 -0.421875 C 2.914062 -0.148438 2.53125 -0.015625 1.90625 -0.015625 C 1.289062 -0.015625 0.910156 -0.148438 0.765625 -0.421875 C 0.679688 -0.554688 0.628906 -0.679688 0.609375 -0.796875 C 0.597656 -0.921875 0.59375 -1.101562 0.59375 -1.34375 L 0.59375 -9.640625 C 0.59375 -9.867188 0.597656 -10.039062 0.609375 -10.15625 C 0.628906 -10.269531 0.679688 -10.40625 0.765625 -10.5625 C 0.910156 -10.820312 1.296875 -10.953125 1.921875 -10.953125 C 2.191406 -10.953125 2.425781 -10.914062 2.625 -10.84375 C 2.820312 -10.78125 2.945312 -10.710938 3 -10.640625 L 3.09375 -10.5625 L 6.484375 -6.09375 C 8.179688 -8.34375 9.316406 -9.828125 9.890625 -10.546875 C 10.054688 -10.816406 10.453125 -10.953125 11.078125 -10.953125 C 11.710938 -10.953125 12.101562 -10.816406 12.25 -10.546875 Z M 12.25 -10.546875 "/></g></g></g><g fill="#65c349" fill-opacity="1"><g transform="translate(143.8755, 268.206769)"><g><path d="M 6.921875 -10.1875 L 10.953125 -1.84375 C 11.128906 -1.5 11.21875 -1.242188 11.21875 -1.078125 C 11.21875 -0.710938 10.925781 -0.390625 10.34375 -0.109375 C 10.007812 0.0664062 9.742188 0.15625 9.546875 0.15625 C 9.347656 0.15625 9.1875 0.109375 9.0625 0.015625 C 8.9375 -0.078125 8.847656 -0.171875 8.796875 -0.265625 C 8.742188 -0.367188 8.664062 -0.519531 8.5625 -0.71875 L 7.796875 -2.328125 L 3.65625 -2.328125 L 2.875 -0.71875 C 2.769531 -0.519531 2.691406 -0.375 2.640625 -0.28125 C 2.585938 -0.195312 2.5 -0.101562 2.375 0 C 2.25 0.09375 2.085938 0.140625 1.890625 0.140625 C 1.691406 0.140625 1.425781 0.0507812 1.09375 -0.125 C 0.507812 -0.394531 0.21875 -0.710938 0.21875 -1.078125 C 0.21875 -1.242188 0.304688 -1.5 0.484375 -1.84375 L 4.515625 -10.203125 C 4.628906 -10.429688 4.796875 -10.613281 5.015625 -10.75 C 5.242188 -10.882812 5.484375 -10.953125 5.734375 -10.953125 C 6.265625 -10.953125 6.660156 -10.695312 6.921875 -10.1875 Z M 5.71875 -6.59375 L 4.71875 -4.546875 L 6.71875 -4.546875 Z M 5.71875 -6.59375 "/></g></g></g><g fill="#65c349" fill-opacity="1"><g transform="translate(155.3122, 268.206769)"><g><path d="M 8.984375 -1.859375 C 9.140625 -1.492188 9.21875 -1.234375 9.21875 -1.078125 C 9.21875 -0.703125 8.90625 -0.382812 8.28125 -0.125 C 7.96875 0.0195312 7.710938 0.09375 7.515625 0.09375 C 7.316406 0.09375 7.15625 0.046875 7.03125 -0.046875 C 6.90625 -0.140625 6.816406 -0.238281 6.765625 -0.34375 C 6.660156 -0.53125 6.269531 -1.429688 5.59375 -3.046875 L 5.125 -3.015625 L 3.25 -3.015625 L 3.25 -1.328125 C 3.25 -1.097656 3.238281 -0.925781 3.21875 -0.8125 C 3.207031 -0.695312 3.160156 -0.566406 3.078125 -0.421875 C 2.941406 -0.148438 2.550781 -0.015625 1.90625 -0.015625 C 1.21875 -0.015625 0.8125 -0.195312 0.6875 -0.5625 C 0.625 -0.738281 0.59375 -1 0.59375 -1.34375 L 0.59375 -9.640625 C 0.59375 -9.867188 0.597656 -10.039062 0.609375 -10.15625 C 0.628906 -10.269531 0.679688 -10.40625 0.765625 -10.5625 C 0.898438 -10.820312 1.285156 -10.953125 1.921875 -10.953125 L 5.15625 -10.953125 C 6.03125 -10.953125 6.882812 -10.632812 7.71875 -10 C 8.113281 -9.695312 8.441406 -9.28125 8.703125 -8.75 C 8.960938 -8.21875 9.09375 -7.628906 9.09375 -6.984375 C 9.09375 -5.859375 8.71875 -4.929688 7.96875 -4.203125 C 8.1875 -3.671875 8.523438 -2.890625 8.984375 -1.859375 Z M 3.25 -5.671875 L 5.15625 -5.671875 C 5.445312 -5.671875 5.734375 -5.78125 6.015625 -6 C 6.304688 -6.21875 6.453125 -6.546875 6.453125 -6.984375 C 6.453125 -7.421875 6.304688 -7.75 6.015625 -7.96875 C 5.734375 -8.195312 5.4375 -8.3125 5.125 -8.3125 L 3.25 -8.3125 Z M 3.25 -5.671875 "/></g></g></g><g fill="#65c349" fill-opacity="1"><g transform="translate(164.745613, 268.206769)"><g><path d="M 5.296875 -5.5 C 6.816406 -4.03125 7.894531 -2.929688 8.53125 -2.203125 C 8.863281 -1.828125 9.03125 -1.507812 9.03125 -1.25 C 9.03125 -1 8.828125 -0.703125 8.421875 -0.359375 C 8.023438 -0.015625 7.703125 0.15625 7.453125 0.15625 C 7.203125 0.15625 6.894531 -0.0546875 6.53125 -0.484375 L 3.25 -4.234375 L 3.25 -1.3125 C 3.25 -1.070312 3.238281 -0.894531 3.21875 -0.78125 C 3.207031 -0.675781 3.160156 -0.550781 3.078125 -0.40625 C 2.941406 -0.132812 2.550781 0 1.90625 0 C 1.21875 0 0.8125 -0.1875 0.6875 -0.5625 C 0.625 -0.726562 0.59375 -0.984375 0.59375 -1.328125 L 0.59375 -9.640625 C 0.59375 -9.867188 0.597656 -10.039062 0.609375 -10.15625 C 0.628906 -10.269531 0.679688 -10.40625 0.765625 -10.5625 C 0.898438 -10.820312 1.285156 -10.953125 1.921875 -10.953125 C 2.617188 -10.953125 3.035156 -10.769531 3.171875 -10.40625 C 3.222656 -10.238281 3.25 -9.976562 3.25 -9.625 L 3.25 -6.78125 C 4.601562 -8.300781 5.695312 -9.550781 6.53125 -10.53125 C 6.882812 -10.9375 7.1875 -11.140625 7.4375 -11.140625 C 7.695312 -11.140625 8.023438 -10.96875 8.421875 -10.625 C 8.828125 -10.28125 9.03125 -9.976562 9.03125 -9.71875 C 9.03125 -9.46875 8.878906 -9.171875 8.578125 -8.828125 C 8.003906 -8.160156 7.109375 -7.242188 5.890625 -6.078125 Z M 5.296875 -5.5 "/></g></g></g><g fill="#65c349" fill-opacity="1"><g transform="translate(174.298622, 268.206769)"><g><path d="M 3.25 -2.640625 L 7.84375 -2.640625 C 8.070312 -2.640625 8.242188 -2.632812 8.359375 -2.625 C 8.472656 -2.613281 8.609375 -2.566406 8.765625 -2.484375 C 9.035156 -2.335938 9.171875 -1.945312 9.171875 -1.3125 C 9.171875 -0.613281 8.984375 -0.207031 8.609375 -0.09375 C 8.441406 -0.03125 8.179688 0 7.828125 0 L 1.90625 0 C 1.21875 0 0.8125 -0.1875 0.6875 -0.5625 C 0.625 -0.726562 0.59375 -0.984375 0.59375 -1.328125 L 0.59375 -9.640625 C 0.59375 -10.148438 0.6875 -10.492188 0.875 -10.671875 C 1.070312 -10.859375 1.429688 -10.953125 1.953125 -10.953125 L 7.84375 -10.953125 C 8.070312 -10.953125 8.242188 -10.945312 8.359375 -10.9375 C 8.472656 -10.925781 8.609375 -10.878906 8.765625 -10.796875 C 9.035156 -10.660156 9.171875 -10.269531 9.171875 -9.625 C 9.171875 -8.925781 8.984375 -8.519531 8.609375 -8.40625 C 8.441406 -8.34375 8.179688 -8.3125 7.828125 -8.3125 L 3.25 -8.3125 L 3.25 -6.796875 L 6.203125 -6.796875 C 6.429688 -6.796875 6.601562 -6.789062 6.71875 -6.78125 C 6.832031 -6.769531 6.96875 -6.722656 7.125 -6.640625 C 7.382812 -6.503906 7.515625 -6.113281 7.515625 -5.46875 C 7.515625 -4.769531 7.328125 -4.363281 6.953125 -4.25 C 6.785156 -4.1875 6.523438 -4.15625 6.171875 -4.15625 L 3.25 -4.15625 Z M 3.25 -2.640625 "/></g></g></g><g fill="#65c349" fill-opacity="1"><g transform="translate(183.83668, 268.206769)"><g><path d="M 1.3125 -10.96875 L 9.625 -10.96875 C 9.945312 -10.96875 10.179688 -10.929688 10.328125 -10.859375 C 10.484375 -10.785156 10.582031 -10.664062 10.625 -10.5 C 10.675781 -10.34375 10.703125 -10.132812 10.703125 -9.875 C 10.703125 -9.625 10.675781 -9.421875 10.625 -9.265625 C 10.582031 -9.109375 10.5 -9 10.375 -8.9375 C 10.195312 -8.851562 9.941406 -8.8125 9.609375 -8.8125 L 6.765625 -8.8125 L 6.765625 -1.28125 C 6.765625 -1.050781 6.753906 -0.878906 6.734375 -0.765625 C 6.722656 -0.660156 6.675781 -0.535156 6.59375 -0.390625 C 6.519531 -0.242188 6.390625 -0.140625 6.203125 -0.078125 C 6.015625 -0.0234375 5.765625 0 5.453125 0 C 5.148438 0 4.90625 -0.0234375 4.71875 -0.078125 C 4.53125 -0.140625 4.398438 -0.242188 4.328125 -0.390625 C 4.253906 -0.535156 4.207031 -0.664062 4.1875 -0.78125 C 4.175781 -0.894531 4.171875 -1.066406 4.171875 -1.296875 L 4.171875 -8.8125 L 1.296875 -8.8125 C 0.984375 -8.8125 0.75 -8.847656 0.59375 -8.921875 C 0.445312 -8.992188 0.347656 -9.109375 0.296875 -9.265625 C 0.242188 -9.429688 0.21875 -9.640625 0.21875 -9.890625 C 0.21875 -10.148438 0.242188 -10.359375 0.296875 -10.515625 C 0.347656 -10.671875 0.429688 -10.78125 0.546875 -10.84375 C 0.734375 -10.925781 0.988281 -10.96875 1.3125 -10.96875 Z M 1.3125 -10.96875 "/></g></g></g><g fill="#65c349" fill-opacity="1"><g transform="translate(194.765085, 268.206769)"><g><path d="M 8.6875 -8.75 C 8.945312 -8.21875 9.078125 -7.628906 9.078125 -6.984375 C 9.078125 -6.335938 8.945312 -5.75 8.6875 -5.21875 C 8.425781 -4.695312 8.09375 -4.285156 7.6875 -3.984375 C 6.851562 -3.335938 5.992188 -3.015625 5.109375 -3.015625 L 3.25 -3.015625 L 3.25 -1.328125 C 3.25 -1.097656 3.238281 -0.925781 3.21875 -0.8125 C 3.207031 -0.695312 3.160156 -0.566406 3.078125 -0.421875 C 2.941406 -0.148438 2.550781 -0.015625 1.90625 -0.015625 C 1.21875 -0.015625 0.8125 -0.195312 0.6875 -0.5625 C 0.625 -0.738281 0.59375 -1 0.59375 -1.34375 L 0.59375 -9.640625 C 0.59375 -9.867188 0.597656 -10.039062 0.609375 -10.15625 C 0.628906 -10.269531 0.679688 -10.40625 0.765625 -10.5625 C 0.898438 -10.820312 1.285156 -10.953125 1.921875 -10.953125 L 5.125 -10.953125 C 6 -10.953125 6.851562 -10.632812 7.6875 -10 C 8.09375 -9.695312 8.425781 -9.28125 8.6875 -8.75 Z M 5.125 -5.671875 C 5.425781 -5.671875 5.71875 -5.78125 6 -6 C 6.289062 -6.21875 6.4375 -6.546875 6.4375 -6.984375 C 6.4375 -7.421875 6.289062 -7.75 6 -7.96875 C 5.71875 -8.195312 5.421875 -8.3125 5.109375 -8.3125 L 3.25 -8.3125 L 3.25 -5.671875 Z M 5.125 -5.671875 "/></g></g></g><g fill="#65c349" fill-opacity="1"><g transform="translate(204.213448, 268.206769)"><g><path d="M 3.25 -2.21875 L 7.3125 -2.21875 C 7.644531 -2.21875 7.882812 -2.175781 8.03125 -2.09375 C 8.175781 -2.019531 8.273438 -1.90625 8.328125 -1.75 C 8.378906 -1.59375 8.40625 -1.378906 8.40625 -1.109375 C 8.40625 -0.847656 8.378906 -0.632812 8.328125 -0.46875 C 8.273438 -0.3125 8.191406 -0.207031 8.078125 -0.15625 C 7.890625 -0.0507812 7.628906 0 7.296875 0 L 1.90625 0 C 1.21875 0 0.8125 -0.1875 0.6875 -0.5625 C 0.625 -0.726562 0.59375 -0.984375 0.59375 -1.328125 L 0.59375 -9.640625 C 0.59375 -9.867188 0.597656 -10.039062 0.609375 -10.15625 C 0.628906 -10.269531 0.679688 -10.40625 0.765625 -10.5625 C 0.898438 -10.820312 1.285156 -10.953125 1.921875 -10.953125 C 2.617188 -10.953125 3.035156 -10.769531 3.171875 -10.40625 C 3.222656 -10.238281 3.25 -9.976562 3.25 -9.625 Z M 3.25 -2.21875 "/></g></g></g><g fill="#65c349" fill-opacity="1"><g transform="translate(212.98906, 268.206769)"><g><path d="M 6.921875 -10.1875 L 10.953125 -1.84375 C 11.128906 -1.5 11.21875 -1.242188 11.21875 -1.078125 C 11.21875 -0.710938 10.925781 -0.390625 10.34375 -0.109375 C 10.007812 0.0664062 9.742188 0.15625 9.546875 0.15625 C 9.347656 0.15625 9.1875 0.109375 9.0625 0.015625 C 8.9375 -0.078125 8.847656 -0.171875 8.796875 -0.265625 C 8.742188 -0.367188 8.664062 -0.519531 8.5625 -0.71875 L 7.796875 -2.328125 L 3.65625 -2.328125 L 2.875 -0.71875 C 2.769531 -0.519531 2.691406 -0.375 2.640625 -0.28125 C 2.585938 -0.195312 2.5 -0.101562 2.375 0 C 2.25 0.09375 2.085938 0.140625 1.890625 0.140625 C 1.691406 0.140625 1.425781 0.0507812 1.09375 -0.125 C 0.507812 -0.394531 0.21875 -0.710938 0.21875 -1.078125 C 0.21875 -1.242188 0.304688 -1.5 0.484375 -1.84375 L 4.515625 -10.203125 C 4.628906 -10.429688 4.796875 -10.613281 5.015625 -10.75 C 5.242188 -10.882812 5.484375 -10.953125 5.734375 -10.953125 C 6.265625 -10.953125 6.660156 -10.695312 6.921875 -10.1875 Z M 5.71875 -6.59375 L 4.71875 -4.546875 L 6.71875 -4.546875 Z M 5.71875 -6.59375 "/></g></g></g><g fill="#65c349" fill-opacity="1"><g transform="translate(224.42576, 268.206769)"><g><path d="M 7.453125 -2.875 L 7.71875 -3.0625 C 8.050781 -3.257812 8.289062 -3.359375 8.4375 -3.359375 C 8.738281 -3.359375 9.070312 -3.082031 9.4375 -2.53125 C 9.65625 -2.175781 9.765625 -1.894531 9.765625 -1.6875 C 9.765625 -1.476562 9.695312 -1.300781 9.5625 -1.15625 C 9.425781 -1.019531 9.269531 -0.894531 9.09375 -0.78125 C 8.914062 -0.675781 8.742188 -0.570312 8.578125 -0.46875 C 8.410156 -0.375 8.070312 -0.242188 7.5625 -0.078125 C 7.050781 0.078125 6.5625 0.15625 6.09375 0.15625 C 5.625 0.15625 5.144531 0.09375 4.65625 -0.03125 C 4.175781 -0.15625 3.675781 -0.363281 3.15625 -0.65625 C 2.644531 -0.957031 2.1875 -1.316406 1.78125 -1.734375 C 1.375 -2.160156 1.035156 -2.703125 0.765625 -3.359375 C 0.503906 -4.023438 0.375 -4.75 0.375 -5.53125 C 0.375 -6.3125 0.503906 -7.015625 0.765625 -7.640625 C 1.023438 -8.273438 1.351562 -8.800781 1.75 -9.21875 C 2.15625 -9.632812 2.617188 -9.984375 3.140625 -10.265625 C 4.117188 -10.796875 5.097656 -11.0625 6.078125 -11.0625 C 6.546875 -11.0625 7.019531 -10.988281 7.5 -10.84375 C 7.988281 -10.695312 8.359375 -10.550781 8.609375 -10.40625 L 8.96875 -10.203125 C 9.144531 -10.085938 9.285156 -9.992188 9.390625 -9.921875 C 9.648438 -9.710938 9.78125 -9.476562 9.78125 -9.21875 C 9.78125 -8.957031 9.675781 -8.679688 9.46875 -8.390625 C 9.070312 -7.847656 8.722656 -7.578125 8.421875 -7.578125 C 8.242188 -7.578125 7.988281 -7.6875 7.65625 -7.90625 C 7.238281 -8.25 6.679688 -8.421875 5.984375 -8.421875 C 5.335938 -8.421875 4.695312 -8.195312 4.0625 -7.75 C 3.769531 -7.53125 3.519531 -7.21875 3.3125 -6.8125 C 3.113281 -6.414062 3.015625 -5.960938 3.015625 -5.453125 C 3.015625 -4.953125 3.113281 -4.503906 3.3125 -4.109375 C 3.519531 -3.710938 3.773438 -3.398438 4.078125 -3.171875 C 4.691406 -2.734375 5.328125 -2.515625 5.984375 -2.515625 C 6.285156 -2.515625 6.570312 -2.550781 6.84375 -2.625 C 7.125 -2.707031 7.328125 -2.789062 7.453125 -2.875 Z M 7.453125 -2.875 "/></g></g></g><g fill="#65c349" fill-opacity="1"><g transform="translate(234.576767, 268.206769)"><g><path d="M 3.25 -2.640625 L 7.84375 -2.640625 C 8.070312 -2.640625 8.242188 -2.632812 8.359375 -2.625 C 8.472656 -2.613281 8.609375 -2.566406 8.765625 -2.484375 C 9.035156 -2.335938 9.171875 -1.945312 9.171875 -1.3125 C 9.171875 -0.613281 8.984375 -0.207031 8.609375 -0.09375 C 8.441406 -0.03125 8.179688 0 7.828125 0 L 1.90625 0 C 1.21875 0 0.8125 -0.1875 0.6875 -0.5625 C 0.625 -0.726562 0.59375 -0.984375 0.59375 -1.328125 L 0.59375 -9.640625 C 0.59375 -10.148438 0.6875 -10.492188 0.875 -10.671875 C 1.070312 -10.859375 1.429688 -10.953125 1.953125 -10.953125 L 7.84375 -10.953125 C 8.070312 -10.953125 8.242188 -10.945312 8.359375 -10.9375 C 8.472656 -10.925781 8.609375 -10.878906 8.765625 -10.796875 C 9.035156 -10.660156 9.171875 -10.269531 9.171875 -9.625 C 9.171875 -8.925781 8.984375 -8.519531 8.609375 -8.40625 C 8.441406 -8.34375 8.179688 -8.3125 7.828125 -8.3125 L 3.25 -8.3125 L 3.25 -6.796875 L 6.203125 -6.796875 C 6.429688 -6.796875 6.601562 -6.789062 6.71875 -6.78125 C 6.832031 -6.769531 6.96875 -6.722656 7.125 -6.640625 C 7.382812 -6.503906 7.515625 -6.113281 7.515625 -5.46875 C 7.515625 -4.769531 7.328125 -4.363281 6.953125 -4.25 C 6.785156 -4.1875 6.523438 -4.15625 6.171875 -4.15625 L 3.25 -4.15625 Z M 3.25 -2.640625 "/></g></g></g></svg>