<svg width="17" height="17" viewBox="0 0 17 17" fill="none" xmlns="http://www.w3.org/2000/svg">
<path d="M14.6365 13.2961C14.6365 13.2961 13.8158 14.1022 13.6147 14.3385C13.287 14.6881 12.901 14.8532 12.395 14.8532C12.3463 14.8532 12.2944 14.8532 12.2457 14.85C11.2823 14.7885 10.3869 14.413 9.71545 14.0925C7.87937 13.2055 6.26713 11.9461 4.92737 10.3501C3.82119 9.01959 3.08156 7.78941 2.59173 6.46858C2.29004 5.66249 2.17974 5.03444 2.2284 4.44201C2.26084 4.06325 2.40682 3.74923 2.67607 3.48053L3.78226 2.3766C3.94121 2.22768 4.1099 2.14675 4.27534 2.14675C4.47971 2.14675 4.64515 2.26977 4.74896 2.37336C4.7522 2.3766 4.75544 2.37984 4.75869 2.38308C4.95657 2.5676 5.14472 2.75861 5.3426 2.96256C5.44316 3.06615 5.54697 3.16975 5.65077 3.27658L6.53637 4.16037C6.88023 4.50352 6.88023 4.82078 6.53637 5.16394C6.4423 5.25782 6.35147 5.3517 6.25739 5.44235C5.9849 5.72076 6.19896 5.50714 5.91674 5.75965C5.91025 5.76612 5.90376 5.76936 5.90052 5.77583C5.62154 6.05424 5.67344 6.32618 5.73183 6.51071C5.73507 6.52042 5.73832 6.53013 5.74156 6.53984C5.97188 7.09666 6.29628 7.62111 6.78936 8.24591L6.7926 8.24915C7.68793 9.34984 8.63192 10.2077 9.67323 10.8649C9.80623 10.9491 9.94248 11.0171 10.0722 11.0818C10.189 11.1401 10.2993 11.1951 10.3934 11.2534C10.4064 11.2599 10.4193 11.2696 10.4323 11.276C10.5426 11.3311 10.6464 11.357 10.7535 11.357C11.0227 11.357 11.1914 11.1886 11.2465 11.1336L11.8824 10.499C11.9927 10.389 12.1679 10.2562 12.3722 10.2562C12.5734 10.2562 12.7388 10.3825 12.8394 10.4926C12.8426 10.4958 12.8426 10.4958 12.8459 10.499L14.6333 12.2828C14.9674 12.613 14.6365 13.2961 14.6365 13.2961Z" stroke="#E25532" stroke-width="1.5" stroke-linecap="round" stroke-linejoin="round"/>
</svg>
