<svg width="18" height="18" viewBox="0 0 18 18" fill="none" xmlns="http://www.w3.org/2000/svg">
<path fill-rule="evenodd" clip-rule="evenodd" d="M13.1691 15.75C13.0492 15.7504 12.9309 15.7221 12.8241 15.6675L8.99911 13.665L5.17411 15.6675C4.80749 15.8602 4.35401 15.7193 4.16123 15.3527C4.08374 15.2053 4.05749 15.0364 4.08661 14.8725L4.83661 10.65L1.74661 7.64996H1.74661C1.55015 7.45391 1.47802 7.16539 1.55911 6.89996L1.55911 6.89996C1.64779 6.62802 1.88343 6.43021 2.16661 6.38996L6.44161 5.76746L8.32411 1.91996V1.91996C8.50466 1.54717 8.95323 1.39132 9.32603 1.57188C9.47791 1.64544 9.60055 1.76807 9.67411 1.91996L11.5791 5.75996L15.8541 6.38246C16.1373 6.42271 16.3729 6.62052 16.4616 6.89246C16.5427 7.15789 16.4706 7.44641 16.2741 7.64246L13.1841 10.6425L13.9341 14.865C13.9888 15.1521 13.8717 15.4448 13.6341 15.615C13.4983 15.7101 13.3348 15.7576 13.1691 15.75L13.1691 15.75Z" fill="#E25532"/>
</svg>
